<svg width="61" height="61" viewBox="0 0 61 61" fill="none" xmlns="http://www.w3.org/2000/svg">
<path d="M54.9834 16.8942C54.1849 15.0453 53.0336 13.3699 51.5938 11.9618C50.153 10.5494 48.4543 9.42699 46.5899 8.65561C44.6567 7.85256 42.5833 7.44151 40.4899 7.44633C37.5531 7.44633 34.6878 8.25053 32.1978 9.76957C31.6021 10.133 31.0361 10.5321 30.5 10.9669C29.9639 10.5321 29.3979 10.133 28.8022 9.76957C26.3122 8.25053 23.4469 7.44633 20.5101 7.44633C18.3953 7.44633 16.3461 7.85141 14.4101 8.65561C12.5396 9.43002 10.8537 10.544 9.40615 11.9618C7.96453 13.3683 6.81292 15.0441 6.0166 16.8942C5.18857 18.8183 4.76562 20.8616 4.76562 22.9644C4.76562 24.9481 5.1707 27.0152 5.9749 29.118C6.64805 30.8753 7.61309 32.6982 8.84619 34.5389C10.8001 37.4519 13.4867 40.49 16.8227 43.5698C22.3508 48.6749 27.8253 52.2015 28.0576 52.3445L29.4694 53.2499C30.0949 53.6491 30.8991 53.6491 31.5246 53.2499L32.9364 52.3445C33.1688 52.1955 38.6373 48.6749 44.1714 43.5698C47.5073 40.49 50.1939 37.4519 52.1479 34.5389C53.381 32.6982 54.352 30.8753 55.0191 29.118C55.8233 27.0152 56.2284 24.9481 56.2284 22.9644C56.2344 20.8616 55.8114 18.8183 54.9834 16.8942ZM30.5 48.5379C30.5 48.5379 9.29297 34.9499 9.29297 22.9644C9.29297 16.8942 14.3147 11.9737 20.5101 11.9737C24.8646 11.9737 28.6414 14.4041 30.5 17.9545C32.3586 14.4041 36.1354 11.9737 40.4899 11.9737C46.6853 11.9737 51.707 16.8942 51.707 22.9644C51.707 34.9499 30.5 48.5379 30.5 48.5379Z" fill="#1890FF"/>
<path d="M40.4899 11.9736C36.1354 11.9736 32.3586 14.4041 30.5 17.9545C28.6414 14.4041 24.8646 11.9736 20.5101 11.9736C14.3147 11.9736 9.29297 16.8941 9.29297 22.9644C9.29297 34.9499 30.5 48.5379 30.5 48.5379C30.5 48.5379 51.707 34.9499 51.707 22.9644C51.707 16.8941 46.6853 11.9736 40.4899 11.9736Z" fill="#E6F7FF"/>
</svg>
