<svg width="16" height="17" viewBox="0 0 16 17" fill="none" xmlns="http://www.w3.org/2000/svg">
<g clip-path="url(#clip0_64_36)">
<path d="M13.4586 14.0535H11.1181V10.4242C11.1181 9.55882 11.1025 8.44476 9.9008 8.44476C8.68179 8.44476 8.49527 9.38767 8.49527 10.3612V14.0532H6.15477V6.59008H8.40165V7.60999H8.4331C8.65796 7.22932 8.98289 6.91615 9.37328 6.70386C9.76367 6.49156 10.2049 6.38808 10.65 6.40444C13.0222 6.40444 13.4596 7.9494 13.4596 9.95931L13.4586 14.0535ZM3.51391 5.56992C3.24528 5.56996 2.98266 5.49114 2.75928 5.34341C2.53589 5.19567 2.36178 4.98567 2.25894 4.73995C2.15609 4.49423 2.12914 4.22383 2.1815 3.96294C2.23386 3.70206 2.36318 3.46241 2.55309 3.2743C2.74301 3.08618 2.985 2.95806 3.24846 2.90612C3.51192 2.85418 3.78501 2.88076 4.03321 2.98251C4.28141 3.08425 4.49357 3.25659 4.64285 3.47772C4.79213 3.69885 4.87184 3.95885 4.87189 4.22483C4.87192 4.40144 4.83682 4.57632 4.76859 4.7395C4.70036 4.90268 4.60035 5.05095 4.47425 5.17585C4.34815 5.30075 4.19843 5.39984 4.03366 5.46745C3.86888 5.53507 3.69228 5.56989 3.51391 5.56992ZM4.68416 14.0535H2.34122V6.59008H4.68416V14.0535ZM14.6254 0.728143H1.16513C0.859619 0.724729 0.565224 0.841552 0.346659 1.05294C0.128094 1.26433 0.00324031 1.55299 -0.000488281 1.85548V15.2385C0.0031127 15.5411 0.127893 15.83 0.34645 16.0416C0.565008 16.2532 0.859468 16.3703 1.16513 16.367H14.6254C14.9317 16.3709 15.227 16.2541 15.4464 16.0425C15.6658 15.8309 15.7914 15.5417 15.7957 15.2385V1.85452C15.7913 1.55142 15.6656 1.26243 15.4462 1.05105C15.2267 0.839668 14.9315 0.72318 14.6254 0.727177" fill="white"/>
</g>
<defs>
<clipPath id="clip0_64_36">
<rect width="16" height="15.5676" fill="white" transform="translate(0 0.727272)"/>
</clipPath>
</defs>
</svg>
