<svg width="80" height="80" viewBox="0 0 80 80" fill="none" xmlns="http://www.w3.org/2000/svg">
<path d="M14.0625 22.8125H20.3125V57.1875H14.0625V22.8125ZM42.8906 36.875H37.1094C37.0472 36.875 36.9876 36.8997 36.9436 36.9436C36.8997 36.9876 36.875 37.0472 36.875 37.1094V42.8906C36.875 42.9528 36.8997 43.0124 36.9436 43.0564C36.9876 43.1003 37.0472 43.125 37.1094 43.125H42.8906C42.9528 43.125 43.0124 43.1003 43.0564 43.0564C43.1003 43.0124 43.125 42.9528 43.125 42.8906V37.1094C43.125 37.0472 43.1003 36.9876 43.0564 36.9436C43.0124 36.8997 42.9528 36.875 42.8906 36.875V36.875ZM59.6875 28.4375H65.9375V51.5625H59.6875V28.4375Z" fill="#E6F7FF"/>
<path d="M70.625 23.125H65.4687V15.625C65.4687 15.2812 65.1875 15 64.8437 15H60.7812C60.4375 15 60.1562 15.2812 60.1562 15.625V23.125H55C54.6562 23.125 54.375 23.4062 54.375 23.75V56.25C54.375 56.5937 54.6562 56.875 55 56.875H60.1562V64.375C60.1562 64.7187 60.4375 65 60.7812 65H64.8437C65.1875 65 65.4687 64.7187 65.4687 64.375V56.875H70.625C70.9687 56.875 71.25 56.5937 71.25 56.25V23.75C71.25 23.4062 70.9687 23.125 70.625 23.125ZM65.9375 51.5625H59.6875V28.4375H65.9375V51.5625ZM47.8125 31.5625H42.6562V18.125C42.6562 17.7812 42.375 17.5 42.0312 17.5H37.9687C37.625 17.5 37.3437 17.7812 37.3437 18.125V31.5625H32.1875C31.8437 31.5625 31.5625 31.8437 31.5625 32.1875V47.8125C31.5625 48.1562 31.8437 48.4375 32.1875 48.4375H37.3437V61.875C37.3437 62.2187 37.625 62.5 37.9687 62.5H42.0312C42.375 62.5 42.6562 62.2187 42.6562 61.875V48.4375H47.8125C48.1562 48.4375 48.4375 48.1562 48.4375 47.8125V32.1875C48.4375 31.8437 48.1562 31.5625 47.8125 31.5625ZM43.125 42.8906C43.125 42.9528 43.1003 43.0124 43.0564 43.0564C43.0124 43.1003 42.9528 43.125 42.8906 43.125H37.1094C37.0472 43.125 36.9876 43.1003 36.9436 43.0564C36.8997 43.0124 36.875 42.9528 36.875 42.8906V37.1094C36.875 37.0472 36.8997 36.9876 36.9436 36.9436C36.9876 36.8997 37.0472 36.875 37.1094 36.875H42.8906C42.9528 36.875 43.0124 36.8997 43.0564 36.9436C43.1003 36.9876 43.125 37.0472 43.125 37.1094V42.8906ZM25 17.5H19.8437V13.125C19.8437 12.7812 19.5625 12.5 19.2187 12.5H15.1562C14.8125 12.5 14.5312 12.7812 14.5312 13.125V17.5H9.375C9.03125 17.5 8.75 17.7812 8.75 18.125V61.875C8.75 62.2187 9.03125 62.5 9.375 62.5H14.5312V66.875C14.5312 67.2187 14.8125 67.5 15.1562 67.5H19.2187C19.5625 67.5 19.8437 67.2187 19.8437 66.875V62.5H25C25.3437 62.5 25.625 62.2187 25.625 61.875V18.125C25.625 17.7812 25.3437 17.5 25 17.5ZM20.3125 57.1875H14.0625V22.8125H20.3125V57.1875Z" fill="#1890FF"/>
</svg>
