<svg width="61" height="61" viewBox="0 0 61 61" fill="none" xmlns="http://www.w3.org/2000/svg">
<path d="M25.4126 24.4415C25.4126 25.9546 26.3479 27.1281 28.3613 27.8549C28.6413 27.9681 28.9213 28.0574 29.2549 28.1528V20.7661C27.0508 21.046 25.4126 22.2791 25.4126 24.4415ZM32.3526 32.4954C32.1798 32.4597 32.013 32.418 31.8283 32.3644V40.3289C34.3661 40.1025 36.1174 38.7026 36.1174 36.3734C36.1174 34.5446 35.1703 33.3532 32.3526 32.4954Z" fill="#E6F7FF"/>
<path d="M30.5 8.33984C18.2643 8.33984 8.33984 18.2643 8.33984 30.5C8.33984 42.7357 18.2643 52.6602 30.5 52.6602C42.7357 52.6602 52.6602 42.7357 52.6602 30.5C52.6602 18.2643 42.7357 8.33984 30.5 8.33984ZM31.8344 43.4387L31.8463 45.3271C31.8463 45.5951 31.6318 45.8096 31.3697 45.8096H29.6779C29.4158 45.8096 29.2014 45.5951 29.2014 45.333V43.4625C23.8996 43.0753 21.4155 40.061 21.1475 36.7847C21.1236 36.5047 21.344 36.2664 21.624 36.2664H24.3762C24.6085 36.2664 24.811 36.4332 24.8468 36.6596C25.1506 38.5539 26.6279 39.9598 29.2609 40.3112V31.8105L27.7896 31.4353C24.674 30.6906 21.7074 28.7486 21.7074 24.7217C21.7074 20.373 25.0076 18.0438 29.2252 17.6328V15.667C29.2252 15.4049 29.4396 15.1904 29.7018 15.1904H31.3757C31.6378 15.1904 31.8522 15.4049 31.8522 15.667V17.6149C35.9328 18.026 38.9888 20.4088 39.3521 24.12C39.3579 24.1863 39.3499 24.2531 39.3286 24.3161C39.3073 24.3791 39.2732 24.4371 39.2285 24.4863C39.1837 24.5355 39.1293 24.575 39.0685 24.6022C39.0078 24.6293 38.9421 24.6437 38.8756 24.6442H36.2009C35.9626 24.6442 35.7601 24.4715 35.7303 24.2332C35.492 22.4937 34.0921 21.076 31.8284 20.7662V28.7665L33.3415 29.118C37.2017 30.0711 39.8287 31.9178 39.8347 36.052C39.8347 40.5316 36.4987 43.0276 31.8344 43.4387V43.4387Z" fill="#E6F7FF"/>
<path d="M30.5 3.8125C15.7623 3.8125 3.8125 15.7623 3.8125 30.5C3.8125 45.2377 15.7623 57.1875 30.5 57.1875C45.2377 57.1875 57.1875 45.2377 57.1875 30.5C57.1875 15.7623 45.2377 3.8125 30.5 3.8125ZM30.5 52.6602C18.2643 52.6602 8.33984 42.7357 8.33984 30.5C8.33984 18.2643 18.2643 8.33984 30.5 8.33984C42.7357 8.33984 52.6602 18.2643 52.6602 30.5C52.6602 42.7357 42.7357 52.6602 30.5 52.6602Z" fill="#1890FF"/>
<path d="M33.3418 29.118L31.8287 28.7665V20.7662C34.0924 21.076 35.4923 22.4937 35.7306 24.2332C35.7603 24.4715 35.9629 24.6442 36.2012 24.6442H38.8759C39.1559 24.6442 39.3763 24.4 39.3524 24.12C38.9891 20.4088 35.9331 18.026 31.8525 17.6149V15.667C31.8525 15.4049 31.6381 15.1904 31.376 15.1904H29.702C29.4399 15.1904 29.2255 15.4049 29.2255 15.667V17.6328C25.0079 18.0438 21.7077 20.373 21.7077 24.7217C21.7077 28.7486 24.6743 30.6906 27.7898 31.4353L29.2612 31.8105V40.3112C26.6282 39.9598 25.1508 38.5539 24.847 36.6596C24.8113 36.4332 24.6088 36.2664 24.3764 36.2664H21.6243C21.3443 36.2664 21.1239 36.5047 21.1477 36.7847C21.4158 40.061 23.8999 43.0753 29.2016 43.4625V45.333C29.2016 45.5951 29.4161 45.8096 29.6782 45.8096H31.37C31.6321 45.8096 31.8466 45.5951 31.8466 45.3271L31.8347 43.4387C36.499 43.0276 39.835 40.5316 39.835 36.052C39.829 31.9178 37.202 30.0711 33.3418 29.118ZM29.2553 28.1529C28.9217 28.0576 28.6417 27.9683 28.3617 27.8551C26.3482 27.1283 25.413 25.9548 25.413 24.4417C25.413 22.2793 27.0511 21.0462 29.2553 20.7662V28.1529ZM31.8287 40.3291V32.3646C32.0134 32.4182 32.1802 32.4599 32.3529 32.4956C35.1706 33.3534 36.1178 34.5448 36.1178 36.3736C36.1178 38.7028 34.3664 40.1027 31.8287 40.3291Z" fill="#1890FF"/>
</svg>
