<svg width="80" height="80" viewBox="0 0 80 80" fill="none" xmlns="http://www.w3.org/2000/svg">
<path d="M42.6562 29.5312H65.9375V37.6562H42.6562V29.5312ZM17.8125 42.9687H37.3437V67.0312H17.8125V42.9687ZM14.0625 29.5312H37.3437V37.6562H14.0625V29.5312ZM42.6562 42.9687H62.1875V67.0312H42.6562V42.9687Z" fill="#E6F7FF"/>
<path d="M68.75 24.2187H57.2187C58.2812 22.5469 58.9062 20.5625 58.9062 18.4375C58.9062 12.4922 54.0703 7.65625 48.125 7.65625C44.8906 7.65625 41.9766 9.09375 40 11.3594C38.0234 9.09375 35.1094 7.65625 31.875 7.65625C25.9297 7.65625 21.0937 12.4922 21.0937 18.4375C21.0937 20.5625 21.7109 22.5469 22.7812 24.2187H11.25C9.86719 24.2187 8.75 25.3359 8.75 26.7187V42.3437C8.75 42.6875 9.03125 42.9687 9.375 42.9687H12.5V69.8437C12.5 71.2266 13.6172 72.3437 15 72.3437H65C66.3828 72.3437 67.5 71.2266 67.5 69.8437V42.9687H70.625C70.9687 42.9687 71.25 42.6875 71.25 42.3437V26.7187C71.25 25.3359 70.1328 24.2187 68.75 24.2187ZM37.3437 67.0312H17.8125V42.9687H37.3437V67.0312ZM37.3437 37.6562H14.0625V29.5312H37.3437V37.6562ZM37.3437 23.9062H31.875C28.8594 23.9062 26.4062 21.4531 26.4062 18.4375C26.4062 15.4219 28.8594 12.9687 31.875 12.9687C34.8906 12.9687 37.3437 15.4219 37.3437 18.4375V23.9062ZM42.6562 18.4375C42.6562 15.4219 45.1094 12.9687 48.125 12.9687C51.1406 12.9687 53.5937 15.4219 53.5937 18.4375C53.5937 21.4531 51.1406 23.9062 48.125 23.9062H42.6562V18.4375ZM62.1875 67.0312H42.6562V42.9687H62.1875V67.0312ZM65.9375 37.6562H42.6562V29.5312H65.9375V37.6562Z" fill="#1890FF"/>
</svg>
