<svg width="80" height="80" viewBox="0 0 80 80" fill="none" xmlns="http://www.w3.org/2000/svg">
<path d="M10.627 61.8779H69.377V18.1279H10.627V61.8779ZM15.0332 51.6826L31.8223 34.8857C32.0645 34.6436 32.4629 34.6436 32.7051 34.8857L41.6426 43.8311L61.5254 23.9404C61.7676 23.6982 62.166 23.6982 62.4082 23.9404L65.2832 26.8154C65.5254 27.0576 65.5254 27.4561 65.2832 27.6982L42.0801 50.917C41.9626 51.0333 41.804 51.0986 41.6387 51.0986C41.4734 51.0986 41.3147 51.0333 41.1973 50.917L32.2598 41.9717L18.7832 55.4482C18.6657 55.5646 18.5071 55.6298 18.3418 55.6298C18.1765 55.6298 18.0179 55.5646 17.9004 55.4482L15.0332 52.5654C14.9169 52.448 14.8516 52.2893 14.8516 52.124C14.8516 51.9587 14.9169 51.8001 15.0332 51.6826V51.6826Z" fill="#E6F7FF"/>
<path d="M72.5029 12.4971H7.50293C6.12012 12.4971 5.00293 13.6143 5.00293 14.9971V64.9971C5.00293 66.3799 6.12012 67.4971 7.50293 67.4971H72.5029C73.8857 67.4971 75.0029 66.3799 75.0029 64.9971V14.9971C75.0029 13.6143 73.8857 12.4971 72.5029 12.4971ZM69.3779 61.8721H10.6279V18.1221H69.3779V61.8721Z" fill="#1890FF"/>
<path d="M17.901 55.442C18.1432 55.6842 18.5416 55.6842 18.7838 55.442L32.2604 41.9654L41.1979 50.9107C41.4401 51.1529 41.8385 51.1529 42.0807 50.9107L65.2838 27.692C65.526 27.4498 65.526 27.0514 65.2838 26.8092L62.4088 23.9342C62.2914 23.8179 62.1327 23.7526 61.9674 23.7526C61.8021 23.7526 61.6435 23.8179 61.526 23.9342L41.6432 43.8248L32.7057 34.8795C32.5882 34.7632 32.4296 34.6979 32.2643 34.6979C32.099 34.6979 31.9404 34.7632 31.8229 34.8795L15.0338 51.6764C14.9175 51.7938 14.8523 51.9525 14.8523 52.1178C14.8523 52.2831 14.9175 52.4417 15.0338 52.5592L17.901 55.442Z" fill="#1890FF"/>
</svg>
