<svg width="16" height="17" viewBox="0 0 16 17" fill="none" xmlns="http://www.w3.org/2000/svg">
<g clip-path="url(#clip0_64_32)">
<path d="M8.00017 0.969696C5.89341 0.969696 5.62901 0.978908 4.80156 1.01656C3.97573 1.05438 3.41203 1.18513 2.91879 1.37697C2.40859 1.57511 1.97579 1.84016 1.54461 2.27151C1.11311 2.70271 0.848068 3.13551 0.649286 3.64557C0.456969 4.13899 0.326064 4.70287 0.288893 5.5284C0.251884 6.35588 0.242188 6.62044 0.242188 8.72727C0.242188 10.8341 0.251561 11.0977 0.289055 11.9252C0.327034 12.751 0.457777 13.3147 0.649448 13.808C0.847745 14.3182 1.11279 14.751 1.54413 15.1822C1.97514 15.6137 2.40794 15.8794 2.91782 16.0776C3.41138 16.2694 3.97525 16.4002 4.80092 16.438C5.62837 16.4756 5.8926 16.4848 7.99921 16.4848C10.1061 16.4848 10.3697 16.4756 11.1972 16.438C12.023 16.4002 12.5873 16.2694 13.0809 16.0776C13.591 15.8794 14.0231 15.6137 14.4541 15.1822C14.8856 14.751 15.1507 14.3182 15.3494 13.8082C15.5401 13.3147 15.6711 12.7509 15.7098 11.9253C15.747 11.0979 15.7567 10.8341 15.7567 8.72727C15.7567 6.62044 15.747 6.35604 15.7098 5.52856C15.6711 4.70271 15.5401 4.13899 15.3494 3.64574C15.1507 3.13551 14.8856 2.70271 14.4541 2.27151C14.0226 1.84 13.5911 1.57495 13.0804 1.37697C12.5859 1.18513 12.0219 1.05438 11.196 1.01656C10.3686 0.978908 10.1052 0.969696 7.99775 0.969696H8.00017ZM7.30428 2.36768C7.51082 2.36735 7.74127 2.36768 8.00017 2.36768C10.0714 2.36768 10.3169 2.37511 11.1348 2.41228C11.8911 2.44687 12.3016 2.57325 12.5751 2.67943C12.9371 2.82004 13.1952 2.98812 13.4665 3.25964C13.738 3.53115 13.9061 3.78974 14.047 4.15176C14.1532 4.42489 14.2797 4.83539 14.3142 5.59176C14.3513 6.40953 14.3594 6.65519 14.3594 8.72549C14.3594 10.7958 14.3513 11.0415 14.3142 11.8592C14.2796 12.6156 14.1532 13.0261 14.047 13.2992C13.9064 13.6613 13.738 13.919 13.4665 14.1904C13.195 14.4619 12.9372 14.63 12.5751 14.7706C12.3019 14.8773 11.8911 15.0033 11.1348 15.0379C10.317 15.0751 10.0714 15.0832 8.00017 15.0832C5.9288 15.0832 5.68332 15.0751 4.86556 15.0379C4.10922 15.003 3.69873 14.8766 3.42512 14.7704C3.06311 14.6298 2.80453 14.4617 2.53303 14.1902C2.26152 13.9187 2.09344 13.6608 1.95252 13.2986C1.84634 13.0255 1.7198 12.6149 1.68538 11.8586C1.64821 11.0408 1.64077 10.7951 1.64077 8.72355C1.64077 6.65196 1.64821 6.4076 1.68538 5.58982C1.71996 4.83345 1.84634 4.42295 1.95252 4.14949C2.09312 3.78747 2.26152 3.52889 2.53303 3.25737C2.80453 2.98586 3.06311 2.81778 3.42512 2.67685C3.69857 2.57018 4.10922 2.44412 4.86556 2.40937C5.58118 2.37705 5.8585 2.36735 7.30428 2.36574V2.36768ZM12.141 3.65576C11.6271 3.65576 11.2101 4.07224 11.2101 4.58634C11.2101 5.10028 11.6271 5.51725 12.141 5.51725C12.6549 5.51725 13.0719 5.10028 13.0719 4.58634C13.0719 4.0724 12.6549 3.65543 12.141 3.65543V3.65576ZM8.00017 4.74343C5.80016 4.74343 4.01646 6.52719 4.01646 8.72727C4.01646 10.9274 5.80016 12.7103 8.00017 12.7103C10.2002 12.7103 11.9832 10.9274 11.9832 8.72727C11.9832 6.52719 10.2 4.74343 8.00001 4.74343H8.00017ZM8.00017 6.14141C9.42817 6.14141 10.586 7.29907 10.586 8.72727C10.586 10.1553 9.42817 11.3131 8.00017 11.3131C6.57202 11.3131 5.41439 10.1553 5.41439 8.72727C5.41439 7.29907 6.57202 6.14141 8.00017 6.14141Z" fill="white"/>
</g>
<defs>
<clipPath id="clip0_64_32">
<rect width="16" height="16" fill="white" transform="translate(0 0.727272)"/>
</clipPath>
</defs>
</svg>
