<svg width="61" height="61" viewBox="0 0 61 61" fill="none" xmlns="http://www.w3.org/2000/svg">
<path d="M10.9609 50.0391H50.0391V10.9609H10.9609V50.0391ZM39.0781 16.6797C39.0781 16.4176 39.2926 16.2031 39.5547 16.2031H44.3203C44.5824 16.2031 44.7969 16.4176 44.7969 16.6797V31.9297C44.7969 32.1918 44.5824 32.4062 44.3203 32.4062H39.5547C39.2926 32.4062 39.0781 32.1918 39.0781 31.9297V16.6797ZM27.6406 16.6797C27.6406 16.4176 27.8551 16.2031 28.1172 16.2031H32.8828C33.1449 16.2031 33.3594 16.4176 33.3594 16.6797V27.6406C33.3594 27.9027 33.1449 28.1172 32.8828 28.1172H28.1172C27.8551 28.1172 27.6406 27.9027 27.6406 27.6406V16.6797ZM16.2031 16.6797C16.2031 16.4176 16.4176 16.2031 16.6797 16.2031H21.4453C21.7074 16.2031 21.9219 16.4176 21.9219 16.6797V44.3203C21.9219 44.5824 21.7074 44.7969 21.4453 44.7969H16.6797C16.4176 44.7969 16.2031 44.5824 16.2031 44.3203V16.6797Z" fill="#E6F7FF"/>
<path d="M52.4219 6.67188H8.57812C7.52373 6.67188 6.67188 7.52373 6.67188 8.57812V52.4219C6.67188 53.4763 7.52373 54.3281 8.57812 54.3281H52.4219C53.4763 54.3281 54.3281 53.4763 54.3281 52.4219V8.57812C54.3281 7.52373 53.4763 6.67188 52.4219 6.67188ZM50.0391 50.0391H10.9609V10.9609H50.0391V50.0391Z" fill="#1890FF"/>
<path d="M16.6797 44.7969H21.4453C21.7074 44.7969 21.9219 44.5824 21.9219 44.3203V16.6797C21.9219 16.4176 21.7074 16.2031 21.4453 16.2031H16.6797C16.4176 16.2031 16.2031 16.4176 16.2031 16.6797V44.3203C16.2031 44.5824 16.4176 44.7969 16.6797 44.7969ZM28.1172 28.1172H32.8828C33.1449 28.1172 33.3594 27.9027 33.3594 27.6406V16.6797C33.3594 16.4176 33.1449 16.2031 32.8828 16.2031H28.1172C27.8551 16.2031 27.6406 16.4176 27.6406 16.6797V27.6406C27.6406 27.9027 27.8551 28.1172 28.1172 28.1172ZM39.5547 32.4062H44.3203C44.5824 32.4062 44.7969 32.1918 44.7969 31.9297V16.6797C44.7969 16.4176 44.5824 16.2031 44.3203 16.2031H39.5547C39.2926 16.2031 39.0781 16.4176 39.0781 16.6797V31.9297C39.0781 32.1918 39.2926 32.4062 39.5547 32.4062Z" fill="#1890FF"/>
</svg>
