<svg width="16" height="13" viewBox="0 0 16 13" fill="none" xmlns="http://www.w3.org/2000/svg">
<g clip-path="url(#clip0_64_29)">
<mask id="path-1-inside-1_64_29" fill="white">
<path d="M5.05156 12.6747C11.0494 12.6747 14.3294 7.81876 14.3294 3.60785C14.3294 3.46993 14.3265 3.33262 14.3202 3.19594C14.9569 2.74613 15.5103 2.18481 15.9468 1.54581C15.3625 1.79961 14.7338 1.97046 14.0742 2.0475C14.7474 1.65298 15.2643 1.02891 15.5081 0.284942C14.8781 0.649947 14.1804 0.915234 13.4375 1.05846C12.8425 0.439063 11.9953 0.051651 11.0573 0.051651C9.25654 0.051651 7.79627 1.47876 7.79627 3.23787C7.79627 3.48794 7.82488 3.73117 7.88082 3.96448C5.17069 3.83122 2.76755 2.56317 1.15923 0.635034C0.879183 1.10596 0.717705 1.653 0.717705 2.2367C0.717705 3.34227 1.29339 4.31828 2.1688 4.88926C1.63381 4.8731 1.13125 4.72958 0.691999 4.4907C0.691519 4.50407 0.691517 4.51711 0.691517 4.5314C0.691517 6.07468 1.81552 7.3632 3.30757 7.65518C3.03357 7.72818 2.74528 7.76732 2.44773 7.76732C2.23794 7.76732 2.03354 7.74714 1.83488 7.70985C2.25001 8.97601 3.45381 9.8974 4.88101 9.92315C3.76496 10.778 2.35904 11.2872 0.831038 11.2872C0.568158 11.2872 0.30846 11.2726 0.0532227 11.2431C1.49637 12.1471 3.20997 12.6745 5.05173 12.6745"/>
</mask>
<path d="M5.05156 12.6747C11.0494 12.6747 14.3294 7.81876 14.3294 3.60785C14.3294 3.46993 14.3265 3.33262 14.3202 3.19594C14.9569 2.74613 15.5103 2.18481 15.9468 1.54581C15.3625 1.79961 14.7338 1.97046 14.0742 2.0475C14.7474 1.65298 15.2643 1.02891 15.5081 0.284942C14.8781 0.649947 14.1804 0.915234 13.4375 1.05846C12.8425 0.439063 11.9953 0.051651 11.0573 0.051651C9.25654 0.051651 7.79627 1.47876 7.79627 3.23787C7.79627 3.48794 7.82488 3.73117 7.88082 3.96448C5.17069 3.83122 2.76755 2.56317 1.15923 0.635034C0.879183 1.10596 0.717705 1.653 0.717705 2.2367C0.717705 3.34227 1.29339 4.31828 2.1688 4.88926C1.63381 4.8731 1.13125 4.72958 0.691999 4.4907C0.691519 4.50407 0.691517 4.51711 0.691517 4.5314C0.691517 6.07468 1.81552 7.3632 3.30757 7.65518C3.03357 7.72818 2.74528 7.76732 2.44773 7.76732C2.23794 7.76732 2.03354 7.74714 1.83488 7.70985C2.25001 8.97601 3.45381 9.8974 4.88101 9.92315C3.76496 10.778 2.35904 11.2872 0.831038 11.2872C0.568158 11.2872 0.30846 11.2726 0.0532227 11.2431C1.49637 12.1471 3.20997 12.6745 5.05173 12.6745" fill="white"/>
<path d="M14.3202 3.19594L13.7432 2.3792L13.2959 2.69518L13.3213 3.24221L14.3202 3.19594ZM15.9468 1.54581L16.7725 2.10986L18.7277 -0.752424L15.5484 0.62861L15.9468 1.54581ZM14.0742 2.0475L13.5686 1.18472L14.1902 3.04075L14.0742 2.0475ZM15.5081 0.284942L16.4584 0.596397L17.2747 -1.89422L15.0068 -0.580334L15.5081 0.284942ZM13.4375 1.05846L12.7164 1.75125L13.093 2.1433L13.6268 2.04038L13.4375 1.05846ZM7.88082 3.96448L7.83171 4.96328L9.16439 5.02881L8.85326 3.7313L7.88082 3.96448ZM1.15923 0.635034L1.92715 -0.00551135L1.02198 -1.09067L0.299714 0.123917L1.15923 0.635034ZM2.1688 4.88926L2.13862 5.8888L5.69646 5.99623L2.7151 4.05167L2.1688 4.88926ZM0.691999 4.4907L1.16976 3.61221L-0.249398 2.84042L-0.307357 4.45482L0.691999 4.4907ZM3.30757 7.65518L3.56501 8.62147L3.49962 6.67379L3.30757 7.65518ZM1.83488 7.70985L2.01935 6.72702L0.358017 6.41519L0.884647 8.0214L1.83488 7.70985ZM4.88101 9.92315L5.4891 10.717L7.76334 8.97498L4.89905 8.92331L4.88101 9.92315ZM0.0532227 11.2431L0.168034 10.2497L-0.477624 12.0905L0.0532227 11.2431ZM5.05156 13.6747C11.6963 13.6747 15.3294 8.27148 15.3294 3.60785H13.3294C13.3294 7.36604 10.4026 11.6747 5.05156 11.6747V13.6747ZM15.3294 3.60785C15.3294 3.45607 15.3263 3.30326 15.3191 3.14968L13.3213 3.24221C13.3268 3.36199 13.3294 3.48378 13.3294 3.60785H15.3294ZM14.8972 4.01268C15.6304 3.49469 16.2683 2.84803 16.7725 2.10986L15.121 0.981771C14.7523 1.52159 14.2834 1.99757 13.7432 2.3792L14.8972 4.01268ZM15.5484 0.62861C15.0545 0.843153 14.5209 0.988523 13.9582 1.05425L14.1902 3.04075C14.9466 2.95239 15.6706 2.75606 16.3452 2.46302L15.5484 0.62861ZM14.5798 2.91027C15.4554 2.39713 16.1357 1.58099 16.4584 0.596397L14.5578 -0.0265121C14.3929 0.476828 14.0394 0.908837 13.5686 1.18472L14.5798 2.91027ZM15.0068 -0.580334C14.4721 -0.270554 13.8797 -0.0452078 13.2482 0.0765443L13.6268 2.04038C14.4811 1.87568 15.2841 1.57045 16.0094 1.15022L15.0068 -0.580334ZM14.1586 0.365676C13.3802 -0.44468 12.2748 -0.948349 11.0573 -0.948349V1.05165C11.7158 1.05165 12.3048 1.32281 12.7164 1.75125L14.1586 0.365676ZM11.0573 -0.948349C8.72618 -0.948349 6.79627 0.904797 6.79627 3.23787H8.79627C8.79627 2.05272 9.78689 1.05165 11.0573 1.05165V-0.948349ZM6.79627 3.23787C6.79627 3.56442 6.83366 3.88601 6.90839 4.19767L8.85326 3.7313C8.8161 3.57634 8.79627 3.41145 8.79627 3.23787H6.79627ZM7.92994 2.96569C5.50525 2.84646 3.36054 1.71292 1.92715 -0.00551135L0.391305 1.27558C2.17455 3.41343 4.83613 4.81597 7.83171 4.96328L7.92994 2.96569ZM0.299714 0.123917C-0.0684614 0.743052 -0.282295 1.46576 -0.282295 2.2367H1.71771C1.71771 1.84024 1.82683 1.46887 2.01874 1.14615L0.299714 0.123917ZM-0.282295 2.2367C-0.282295 3.69962 0.480711 4.98213 1.62249 5.72684L2.7151 4.05167C2.10606 3.65443 1.71771 2.98493 1.71771 2.2367H-0.282295ZM2.19898 3.88971C1.82492 3.87842 1.4752 3.77832 1.16976 3.61221L0.21424 5.36919C0.787303 5.68085 1.44271 5.86779 2.13862 5.8888L2.19898 3.88971ZM-0.307357 4.45482C-0.308588 4.4891 -0.308483 4.52005 -0.308483 4.5314H1.69152C1.69152 4.52765 1.69152 4.52526 1.69152 4.52312C1.69153 4.5211 1.69153 4.5201 1.69154 4.5197C1.69154 4.51893 1.69153 4.52173 1.69135 4.52658L-0.307357 4.45482ZM-0.308483 4.5314C-0.308483 6.57749 1.17867 8.25754 3.11553 8.63656L3.49962 6.67379C2.45237 6.46886 1.69152 5.57187 1.69152 4.5314H-0.308483ZM3.05013 6.68888C2.85903 6.7398 2.65726 6.76732 2.44773 6.76732V8.76732C2.8333 8.76732 3.2081 8.71656 3.56501 8.62147L3.05013 6.68888ZM2.44773 6.76732C2.30242 6.76732 2.15979 6.75338 2.01935 6.72702L1.6504 8.69269C1.90729 8.74091 2.17346 8.76732 2.44773 8.76732V6.76732ZM0.884647 8.0214C1.43264 9.69276 3.01105 10.8896 4.86297 10.923L4.89905 8.92331C3.89657 8.90522 3.06739 8.25926 2.78511 7.3983L0.884647 8.0214ZM4.27292 9.12928C3.32701 9.85383 2.13374 10.2872 0.831038 10.2872V12.2872C2.58434 12.2872 4.2029 11.7022 5.4891 10.717L4.27292 9.12928ZM0.831038 10.2872C0.605184 10.2872 0.383851 10.2746 0.168034 10.2497L-0.0615882 12.2365C0.233069 12.2705 0.531133 12.2872 0.831038 12.2872V10.2872ZM-0.477624 12.0905C1.11972 13.0911 3.01649 13.6745 5.05173 13.6745V11.6745C3.40346 11.6745 1.87302 11.203 0.58407 10.3956L-0.477624 12.0905Z" fill="white" mask="url(#path-1-inside-1_64_29)"/>
</g>
<defs>
<clipPath id="clip0_64_29">
<rect width="16" height="12.7273" fill="white"/>
</clipPath>
</defs>
</svg>
