<svg width="61" height="61" viewBox="0 0 61 61" fill="none" xmlns="http://www.w3.org/2000/svg">
<path d="M15.5894 37.017C15.0294 37.8868 14.5767 38.822 14.249 39.793H19.3006V33.282C17.8232 34.247 16.5604 35.5159 15.5894 37.017ZM41.699 33.282V39.793H46.7506C46.423 38.822 45.9702 37.8868 45.4103 37.017C44.4499 35.5246 43.1852 34.2519 41.699 33.282ZM37.8865 18.991L30.4998 10.2342L23.1131 18.991V39.793H37.8865V18.991ZM30.4998 26.6875C29.7516 26.6723 29.0391 26.3643 28.5153 25.8297C27.9916 25.2951 27.6982 24.5766 27.6982 23.8281C27.6982 23.0797 27.9916 22.3612 28.5153 21.8266C29.0391 21.292 29.7516 20.984 30.4998 20.9688C31.2481 20.984 31.9605 21.292 32.4843 21.8266C33.008 22.3612 33.3014 23.0797 33.3014 23.8281C33.3014 24.5766 33.008 25.2951 32.4843 25.8297C31.9605 26.3643 31.2481 26.6723 30.4998 26.6875Z" fill="#E6F7FF"/>
<path d="M51.4688 43.8438C51.4688 37.1957 47.5728 31.4531 41.9375 28.7784V18.9017C41.9375 18.0021 41.6218 17.1324 41.038 16.4474L31.9595 5.68301C31.5782 5.23027 31.0361 5.00391 30.5 5.00391C29.9639 5.00391 29.4218 5.23027 29.0405 5.68301L19.962 16.4474C19.3822 17.1338 19.0636 18.0031 19.0625 18.9017V28.7784C13.4271 31.4531 9.53125 37.1957 9.53125 43.8438H18.854C18.717 44.2727 18.6455 44.7373 18.6455 45.2615C18.6455 46.578 19.0982 47.8647 19.9203 48.8834C20.5913 49.7165 21.48 50.3475 22.4878 50.7063C23.8639 53.923 26.9913 55.9961 30.5 55.9961C32.2335 55.9961 33.9134 55.4838 35.349 54.5188C36.7549 53.5775 37.845 52.261 38.5063 50.7063C39.5136 50.3497 40.4024 49.7207 41.0737 48.8894C41.8969 47.8615 42.3464 46.5844 42.3485 45.2675C42.3485 44.7671 42.283 44.2905 42.1639 43.8497L51.4688 43.8438ZM19.3008 39.793H14.2492C14.5769 38.822 15.0296 37.8867 15.5896 37.017C16.5605 35.5158 17.8234 34.247 19.3008 33.2819V39.793ZM23.1133 18.991L30.5 10.2342L37.8867 18.991V39.793H23.1133V18.991ZM37.4161 46.715C37.1063 46.8938 36.7489 46.9652 36.3975 46.9176L35.2358 46.7746L35.069 47.9303C34.7474 50.188 32.7815 51.8917 30.5 51.8917C28.2185 51.8917 26.2526 50.188 25.931 47.9303L25.7642 46.7687L24.6025 46.9176C24.2494 46.9597 23.8921 46.8865 23.5839 46.7091C23.0656 46.4112 22.7439 45.8572 22.7439 45.2556C22.7439 44.6241 23.0954 44.0999 23.6137 43.8378H37.3923C37.9165 44.1059 38.262 44.6301 38.262 45.2556C38.2561 45.8632 37.9344 46.4231 37.4161 46.715ZM41.6992 39.793V33.2819C43.1854 34.2518 44.4501 35.5246 45.4104 37.017C45.9704 37.8867 46.4231 38.822 46.7508 39.793H41.6992Z" fill="#1890FF"/>
<path d="M27.6406 23.8281C27.6406 24.5865 27.9419 25.3138 28.4781 25.85C29.0144 26.3862 29.7416 26.6875 30.5 26.6875C31.2584 26.6875 31.9856 26.3862 32.5219 25.85C33.0581 25.3138 33.3594 24.5865 33.3594 23.8281C33.3594 23.0698 33.0581 22.3425 32.5219 21.8062C31.9856 21.27 31.2584 20.9688 30.5 20.9688C29.7416 20.9688 29.0144 21.27 28.4781 21.8062C27.9419 22.3425 27.6406 23.0698 27.6406 23.8281Z" fill="#1890FF"/>
</svg>
