<svg width="61" height="61" viewBox="0 0 61 61" fill="none" xmlns="http://www.w3.org/2000/svg">
<path d="M55.2812 9.53125H5.71875C4.66436 9.53125 3.8125 10.3831 3.8125 11.4375V49.5625C3.8125 50.6169 4.66436 51.4688 5.71875 51.4688H55.2812C56.3356 51.4688 57.1875 50.6169 57.1875 49.5625V11.4375C57.1875 10.3831 56.3356 9.53125 55.2812 9.53125ZM52.8984 47.1797H8.10156V13.8203H52.8984V47.1797Z" fill="#1890FF"/>
<path d="M8.10156 47.1797H52.8984V13.8203H8.10156V47.1797ZM36.2188 25.0195C36.2188 24.7574 36.2783 24.543 36.3558 24.543H43.7067C43.7842 24.543 43.8438 24.7574 43.8438 25.0195V27.8789C43.8438 28.141 43.7842 28.3555 43.7067 28.3555H36.3558C36.2783 28.3555 36.2188 28.141 36.2188 27.8789V25.0195ZM36.2188 33.5977C36.2188 33.3355 36.4094 33.1211 36.6417 33.1211H47.7039C47.9362 33.1211 48.1269 33.3355 48.1269 33.5977V36.457C48.1269 36.7191 47.9362 36.9336 47.7039 36.9336H36.6417C36.4094 36.9336 36.2188 36.7191 36.2188 36.457V33.5977ZM12.8791 39.5904C13.0459 36.4153 14.7794 33.6572 17.323 32.0786C16.2448 30.8872 15.5896 29.3146 15.5896 27.5811C15.5896 23.8937 18.5621 20.9092 22.2257 20.9092C25.8893 20.9092 28.8618 23.8937 28.8618 27.5811C28.8618 29.3146 28.2065 30.8932 27.1283 32.0786C29.666 33.6513 31.4055 36.4153 31.5723 39.5904C31.5755 39.655 31.5656 39.7195 31.5431 39.7801C31.5206 39.8407 31.486 39.8961 31.4414 39.9429C31.3968 39.9897 31.3432 40.027 31.2838 40.0524C31.2243 40.0778 31.1603 40.0909 31.0957 40.0908H28.4806C28.2304 40.0908 28.0278 39.8942 28.01 39.644C27.7836 36.6357 25.2697 34.2529 22.2197 34.2529C19.1697 34.2529 16.6559 36.6357 16.4295 39.644C16.4116 39.8942 16.2091 40.0908 15.9589 40.0908H13.3438C13.0697 40.0908 12.8553 39.8645 12.8791 39.5904Z" fill="#E6F7FF"/>
<path d="M19.1401 27.5811C19.1401 28.4026 19.4646 29.1905 20.0422 29.7714C20.6198 30.3524 21.4031 30.6787 22.2199 30.6787C23.0367 30.6787 23.8201 30.3524 24.3977 29.7714C24.9752 29.1905 25.2997 28.4026 25.2997 27.5811C25.2997 27.1743 25.22 26.7715 25.0653 26.3956C24.9105 26.0198 24.6836 25.6783 24.3977 25.3907C24.1117 25.103 23.7722 24.8749 23.3985 24.7192C23.0248 24.5635 22.6244 24.4834 22.2199 24.4834C21.8155 24.4834 21.415 24.5635 21.0413 24.7192C20.6677 24.8749 20.3282 25.103 20.0422 25.3907C19.7562 25.6783 19.5293 26.0198 19.3746 26.3956C19.2198 26.7715 19.1401 27.1743 19.1401 27.5811Z" fill="#E6F7FF"/>
<path d="M36.3554 28.3555H43.7064C43.7838 28.3555 43.8434 28.141 43.8434 27.8789V25.0195C43.8434 24.7574 43.7838 24.543 43.7064 24.543H36.3554C36.278 24.543 36.2184 24.7574 36.2184 25.0195V27.8789C36.2184 28.141 36.278 28.3555 36.3554 28.3555ZM36.6414 36.9336H47.7036C47.9359 36.9336 48.1265 36.7191 48.1265 36.457V33.5977C48.1265 33.3355 47.9359 33.1211 47.7036 33.1211H36.6414C36.409 33.1211 36.2184 33.3355 36.2184 33.5977V36.457C36.2184 36.7191 36.409 36.9336 36.6414 36.9336ZM13.3434 40.0908H15.9585C16.2087 40.0908 16.4113 39.8942 16.4292 39.644C16.6555 36.6357 19.1694 34.2529 22.2194 34.2529C25.2694 34.2529 27.7833 36.6357 28.0096 39.644C28.0275 39.8942 28.23 40.0908 28.4802 40.0908H31.0954C31.16 40.0909 31.224 40.0778 31.2834 40.0524C31.3428 40.027 31.3965 39.9897 31.4411 39.9429C31.4856 39.8961 31.5202 39.8407 31.5427 39.7801C31.5652 39.7195 31.5752 39.655 31.5719 39.5904C31.4051 36.4153 29.6657 33.6513 27.128 32.0786C28.2471 30.8484 28.8654 29.2441 28.8615 27.5811C28.8615 23.8937 25.8889 20.9092 22.2253 20.9092C18.5618 20.9092 15.5892 23.8937 15.5892 27.5811C15.5892 29.3146 16.2445 30.8872 17.3227 32.0786C16.0308 32.8792 14.9518 33.9805 14.178 35.2886C13.4041 36.5967 12.9584 38.0727 12.8788 39.5904C12.8549 39.8645 13.0694 40.0908 13.3434 40.0908ZM22.2194 24.4834C23.9171 24.4834 25.2992 25.8714 25.2992 27.5811C25.2992 29.2907 23.9171 30.6787 22.2194 30.6787C20.5216 30.6787 19.1396 29.2907 19.1396 27.5811C19.1396 25.8714 20.5216 24.4834 22.2194 24.4834Z" fill="#1890FF"/>
</svg>
